<svg id="Layer_1" data-name="Layer 1" xmlns="http://www.w3.org/2000/svg" viewBox="0 0 72 72"><defs><style>.cls-1{fill:#3601ff;}.cls-2{fill:#fff;opacity:0.5;}</style></defs><path class="cls-1" d="M36,0A36,36,0,1,0,72,36,36,36,0,0,0,36,0Zm5,54.31c-.91,1-2.67,2.89-5,2.89s-4.11-1.88-5-2.89c-8.91-9.91-18-11.63-17-24a11.83,11.83,0,0,1,2.21-6.47c3.39-4.48,9.4-4.58,9.72-4.58a11.8,11.8,0,0,1,3.43.51,12,12,0,0,1,6.66,5,12,12,0,0,1,6.66-5,11.73,11.73,0,0,1,3.43-.51c.32,0,6.15.1,9.56,4.39,1.07,1.34,2.22,3.48,2.41,7.75C58.61,43.14,51,43.2,41,54.31Z"/><path class="cls-2" d="M41,54.31c-.91,1-2.67,2.89-5,2.89s-4.11-1.88-5-2.89c-8.91-9.91-18-11.63-17-24a11.83,11.83,0,0,1,2.21-6.47c3.39-4.48,9.4-4.58,9.72-4.58a11.8,11.8,0,0,1,3.43.51,12,12,0,0,1,6.66,5,12,12,0,0,1,6.66-5,11.73,11.73,0,0,1,3.43-.51c.32,0,6.15.1,9.56,4.39,1.07,1.34,2.22,3.48,2.41,7.75C58.61,43.14,51,43.2,41,54.31Z"/></svg>