<svg id="Layer_1" data-name="Layer 1" xmlns="http://www.w3.org/2000/svg" viewBox="0 0 72 72"><defs><style>.cls-1{fill:#3601ff;}.cls-2{fill:#fff;}</style></defs><path class="cls-1" d="M36,0A36,36,0,1,0,72,36,36,36,0,0,0,36,0ZM30,50.33a5,5,0,0,1-10,0V21.67a5,5,0,0,1,10,0Zm22.06,0a5,5,0,0,1-10,0V21.67a5,5,0,0,1,10,0Z"/><path class="cls-2" d="M30,50.33a5,5,0,0,1-6,4.89,5.12,5.12,0,0,1-4-5.08V21.86a5.12,5.12,0,0,1,4-5.08,5,5,0,0,1,6,4.89Z"/><path class="cls-2" d="M52,50.33a5,5,0,0,1-6,4.89,5.12,5.12,0,0,1-4-5.08V21.86a5.12,5.12,0,0,1,4-5.08,5,5,0,0,1,6,4.89Z"/></svg>